<svg width="113" height="23" viewBox="0 0 113 23" fill="none" xmlns="http://www.w3.org/2000/svg">
<path d="M9.84043 0.895377C10.2612 1.43633 10.376 2.1545 10.1847 3.04988L6.65592 19.9501C6.44553 20.8828 6.02475 21.601 5.39359 22.1046C4.76242 22.6083 4.0165 22.8601 3.15582 22.8601H0V0.139903H7.88956C8.73111 0.139903 9.3814 0.391727 9.84043 0.895377ZM3.52878 20.9294C3.87305 20.9294 4.11213 20.8642 4.24602 20.7336C4.39903 20.603 4.51378 20.3605 4.59029 20.0061L8.17645 2.99392C8.25295 2.6395 8.23383 2.40633 8.11907 2.2944C8.02344 2.16383 7.80349 2.09854 7.45922 2.09854H6.34033L2.4099 20.9294H3.52878Z" fill="white"/>
<path d="M10.7583 20.9294H13.828L13.4264 22.8601H8.37705L13.0821 0.139903H18.074L17.6724 2.09854H14.6887L13.0247 10.045H15.7502L15.3485 12.0036H12.6231L10.7583 20.9294Z" fill="white"/>
<path d="M23.2415 12.3954C23.2797 12.955 23.2128 13.6358 23.0406 14.438L21.9218 19.9501C21.7114 20.9201 21.3002 21.6663 20.6881 22.1886C20.0952 22.7295 19.3397 23 18.4217 23H18.1348C17.255 23 16.6142 22.7295 16.2126 22.1886C15.7918 21.629 15.6771 20.8828 15.8683 19.9501L17.2741 12.983H19.311L17.8479 20.0061C17.7522 20.4351 17.7714 20.7149 17.9053 20.8455C18.0391 20.9761 18.2591 21.0414 18.5651 21.0414H18.7946C19.0433 21.0414 19.2537 20.9854 19.4258 20.8735C19.6171 20.7802 19.7605 20.4911 19.8561 20.0061L21.0037 14.5499C21.0993 14.1022 21.1567 13.7571 21.1758 13.5146C21.195 13.2534 21.195 13.0669 21.1758 12.955C21.1758 12.8431 21.1376 12.6938 21.0611 12.5073C21.0037 12.3208 20.8985 12.0969 20.7455 11.8358L19.225 9.31752C18.8998 8.79521 18.7086 8.3382 18.6512 7.94647C18.6129 7.74128 18.6034 7.49878 18.6225 7.21898C18.6416 6.92052 18.6894 6.58475 18.7659 6.21168L19.4545 2.99392C19.6266 2.04258 20.0187 1.31508 20.6307 0.811435C21.281 0.270478 22.027 0 22.8685 0H23.1267C23.9874 0 24.6186 0.270478 25.0202 0.811435C25.4027 1.35239 25.5079 2.07989 25.3358 2.99392L24.2169 8.3382H22.18L23.2988 2.96594C23.3945 2.48094 23.3753 2.19181 23.2415 2.09854C23.1076 2.00527 22.9259 1.95864 22.6964 1.95864H22.4955C22.266 1.95864 22.0556 2.00527 21.8644 2.09854C21.6922 2.19181 21.5584 2.48094 21.4627 2.96594L20.8029 6.15572C20.7264 6.51014 20.6881 6.77129 20.6881 6.93917C20.6881 7.10706 20.6881 7.21898 20.6881 7.27494C20.7072 7.3309 20.7359 7.4335 20.7742 7.58273C20.8316 7.7133 20.9368 7.89051 21.0898 8.11436L21.1185 8.14234L22.6103 10.6886C22.9737 11.2855 23.1841 11.8544 23.2415 12.3954Z" fill="white"/>
<path d="M28.1552 0.139903H30.1634L25.4297 22.8601H23.4501L28.1552 0.139903Z" fill="white"/>
<path d="M34.7936 8.36618L35.9412 2.96594C36.0368 2.5369 36.0177 2.26642 35.8838 2.1545C35.7691 2.02393 35.5587 1.95864 35.2526 1.95864H35.0231C34.7362 1.95864 34.5067 2.02393 34.3346 2.1545C34.1624 2.26642 34.0286 2.5369 33.9329 2.96594L30.3468 20.0341C30.2511 20.4631 30.2703 20.7429 30.4042 20.8735C30.538 21.0041 30.7484 21.0693 31.0353 21.0693H31.2935C31.5422 21.0693 31.7525 21.0134 31.9247 20.9015C32.1159 20.8082 32.2594 20.5191 32.355 20.0341L34.0477 12.0316H33.3591L33.7608 10.073H36.4863L34.4207 19.9781C34.2103 20.9481 33.7991 21.6942 33.187 22.2165C32.5941 22.7388 31.8386 23 30.9206 23H30.605C30.1651 23 29.7826 22.9347 29.4574 22.8041C29.1323 22.6736 28.8741 22.4777 28.6828 22.2165C28.2811 21.6756 28.176 20.9294 28.3672 19.9781L31.896 2.99392C32.0681 2.07989 32.4889 1.34307 33.1583 0.783455C33.7704 0.261152 34.5163 0 35.3961 0H35.683C36.5819 0 37.2322 0.261152 37.6339 0.783455C38.0355 1.2871 38.1503 2.02393 37.9781 2.99392L36.8306 8.36618H34.7936Z" fill="white"/>
<path d="M44.892 0.139903H46.929L42.1952 22.8601H40.3017L40.5026 11.6119L38.15 22.8601H36.1418L40.8468 0.139903H42.7403L42.5395 11.3881L44.892 0.139903Z" fill="white"/>
<path d="M50.8686 16.936C50.9718 17.1561 50.9858 17.4357 50.9108 17.775L50.1932 21.1996C50.09 21.6673 49.8837 22.0203 49.5741 22.2587C49.274 22.5062 48.9081 22.63 48.4767 22.63H46.929L49.2365 11.462H50.7138C51.1359 11.462 51.4548 11.5858 51.6706 11.8334C51.8863 12.0809 51.9426 12.434 51.8394 12.8924L51.2203 15.8495C51.1734 16.0603 51.1125 16.2391 51.0374 16.3858C50.9624 16.5326 50.878 16.6563 50.7842 16.7572C50.8029 16.7847 50.817 16.8168 50.8264 16.8535C50.8357 16.881 50.8498 16.9085 50.8686 16.936ZM50.8686 12.8649C50.9061 12.6907 50.8967 12.5761 50.8404 12.5211C50.7842 12.4569 50.6716 12.4248 50.5028 12.4248H50.0244L49.2083 16.3308H49.7148C49.8931 16.3308 50.015 16.2942 50.0807 16.2208C50.1463 16.1475 50.1979 16.0328 50.2354 15.877L50.8686 12.8649ZM48.6596 21.681C48.8284 21.681 48.9504 21.6489 49.0254 21.5847C49.1004 21.5206 49.1567 21.4014 49.1942 21.2271L49.9259 17.7337C49.9634 17.5595 49.954 17.4449 49.8977 17.3899C49.8508 17.3257 49.743 17.2936 49.5741 17.2936H49.0113L48.0968 21.681H48.6596Z" fill="white"/>
<path d="M55.007 11.462H56.006L53.4031 18.8753L52.6292 22.63H51.6302L52.4041 18.8753L52.8965 11.462H53.8955L53.6563 15.3406L55.007 11.462Z" fill="white"/>
<path d="M65.8305 0.137699C66.7523 0.137699 67.4108 0.385558 67.8058 0.881277C68.2197 1.377 68.3232 2.08385 68.1162 3.00185L66.8746 8.92293C66.6865 9.84092 66.2914 10.557 65.6894 11.071C65.0874 11.5668 64.3255 11.8146 63.4037 11.8146H62.5571L60.3278 22.5001H58.3525L62.9522 0.19278L65.8305 0.137699ZM62.9522 9.88682H63.7987C64.1374 9.88682 64.3819 9.83174 64.5324 9.72158C64.7018 9.59306 64.824 9.35438 64.8993 9.00555L66.1691 2.94677C66.2068 2.70809 66.2068 2.54285 66.1691 2.45105C66.1315 2.35925 66.1033 2.29499 66.0845 2.25827C66.0092 2.12975 65.7835 2.06549 65.4072 2.06549H64.5889L62.9522 9.88682Z" fill="white"/>
<path d="M75.4413 0.716038C75.9492 1.21176 76.0998 1.96451 75.8928 2.97431L71.801 22.5001H69.7975L72.0268 11.8146H70.0515L67.8222 22.5001H65.875L69.9386 2.97431C69.9386 2.91923 69.9574 2.81825 69.995 2.67137C70.0327 2.50613 70.0891 2.32253 70.1643 2.12057C70.2584 1.91861 70.3807 1.70747 70.5312 1.48715C70.6817 1.26684 70.8792 1.0557 71.1238 0.853737C71.3495 0.651777 71.6505 0.458998 72.0268 0.275399C72.4219 0.0917996 72.911 0 73.4942 0C73.5506 0 73.6541 0.00917985 73.8046 0.0275395C73.9739 0.0275395 74.1526 0.0458998 74.3408 0.0826203C74.5289 0.11934 74.717 0.192779 74.9052 0.302938C75.1121 0.394739 75.2908 0.532439 75.4413 0.716038ZM71.9139 2.94677C71.8387 3.25889 71.6788 4.00247 71.4342 5.1775C71.1896 6.35254 70.8604 7.92231 70.4465 9.88682H72.4219L73.8893 2.94677C73.9645 2.52449 73.9175 2.24909 73.7482 2.12057C73.5977 1.99205 73.3813 1.92779 73.0991 1.92779H73.0427C72.9863 1.92779 72.8828 1.94615 72.7323 1.98287C72.6006 2.00123 72.4689 2.05631 72.3372 2.14811C72.1303 2.31335 71.9892 2.57957 71.9139 2.94677Z" fill="white"/>
<path d="M81.8193 12.2002C81.8569 12.751 81.791 13.4211 81.6217 14.2106L80.5212 19.6359C80.3142 20.5907 79.9098 21.3251 79.3078 21.8391C78.7246 22.3716 77.9815 22.6378 77.0785 22.6378H76.7963C75.9309 22.6378 75.3007 22.3716 74.9056 21.8391C74.4917 21.2883 74.3788 20.5539 74.567 19.6359L75.9497 12.7785H77.9532L76.5141 19.691C76.42 20.1133 76.4388 20.3887 76.5705 20.5172C76.7022 20.6457 76.9185 20.71 77.2196 20.71H77.4453C77.6899 20.71 77.8968 20.6549 78.0661 20.5448C78.2542 20.453 78.3953 20.1684 78.4894 19.691L79.6182 14.3207C79.7122 13.8801 79.7687 13.5404 79.7875 13.3018C79.8063 13.0447 79.8063 12.8611 79.7875 12.751C79.7875 12.6408 79.7499 12.4939 79.6746 12.3103C79.6182 12.1267 79.5147 11.9064 79.3642 11.6494L77.8686 9.17078C77.5488 8.65671 77.3606 8.20689 77.3042 7.82133C77.2666 7.61937 77.2572 7.38069 77.276 7.10529C77.2948 6.81153 77.3418 6.48106 77.4171 6.11386L78.0943 2.94677C78.2637 2.01041 78.6493 1.29437 79.2513 0.798657C79.891 0.266219 80.6246 0 81.4524 0H81.7064C82.5529 0 83.1738 0.266219 83.5688 0.798657C83.9451 1.3311 84.0486 2.04713 83.8792 2.94677L82.7787 8.20689H80.7752L81.8757 2.91923C81.9698 2.44187 81.9509 2.15729 81.8193 2.06549C81.6876 1.97369 81.5088 1.92779 81.2831 1.92779H81.0856C80.8598 1.92779 80.6529 1.97369 80.4647 2.06549C80.2954 2.15729 80.1637 2.44187 80.0697 2.91923L79.4206 6.05878C79.3454 6.40762 79.3078 6.66466 79.3078 6.8299C79.3078 6.99513 79.3078 7.10529 79.3078 7.16037C79.3266 7.21545 79.3548 7.31643 79.3924 7.46331C79.4489 7.59183 79.5523 7.76625 79.7028 7.98657L79.731 8.01411L81.1984 10.5202C81.5559 11.1078 81.7628 11.6677 81.8193 12.2002Z" fill="white"/>
<path d="M89.7283 12.2002C89.7659 12.751 89.7001 13.4211 89.5308 14.2106L88.4302 19.6359C88.2233 20.5907 87.8188 21.3251 87.2168 21.8391C86.6336 22.3716 85.8905 22.6378 84.9875 22.6378H84.7053C83.8399 22.6378 83.2097 22.3716 82.8146 21.8391C82.4008 21.2883 82.2879 20.5539 82.476 19.6359L83.8587 12.7785H85.8623L84.4231 19.691C84.3291 20.1133 84.3479 20.3887 84.4796 20.5172C84.6113 20.6457 84.8276 20.71 85.1286 20.71H85.3544C85.5989 20.71 85.8059 20.6549 85.9752 20.5448C86.1633 20.453 86.3044 20.1684 86.3985 19.691L87.5272 14.3207C87.6213 13.8801 87.6777 13.5404 87.6965 13.3018C87.7154 13.0447 87.7154 12.8611 87.6965 12.751C87.6965 12.6408 87.6589 12.4939 87.5837 12.3103C87.5272 12.1267 87.4238 11.9064 87.2733 11.6494L85.7776 9.17078C85.4578 8.65671 85.2697 8.20689 85.2133 7.82133C85.1756 7.61937 85.1662 7.38069 85.185 7.10529C85.2039 6.81153 85.2509 6.48106 85.3261 6.11386L86.0034 2.94677C86.1727 2.01041 86.5584 1.29437 87.1604 0.798657C87.8 0.266219 88.5337 0 89.3615 0H89.6154C90.462 0 91.0828 0.266219 91.4779 0.798657C91.8541 1.3311 91.9576 2.04713 91.7883 2.94677L90.6878 8.20689H88.6842L89.7847 2.91923C89.8788 2.44187 89.86 2.15729 89.7283 2.06549C89.5966 1.97369 89.4179 1.92779 89.1921 1.92779H88.9946C88.7689 1.92779 88.5619 1.97369 88.3738 2.06549C88.2045 2.15729 88.0728 2.44187 87.9787 2.91923L87.3297 6.05878C87.2544 6.40762 87.2168 6.66466 87.2168 6.8299C87.2168 6.99513 87.2168 7.10529 87.2168 7.16037C87.2356 7.21545 87.2638 7.31643 87.3015 7.46331C87.3579 7.59183 87.4614 7.76625 87.6119 7.98657L87.6401 8.01411L89.1075 10.5202C89.4649 11.1078 89.6719 11.6677 89.7283 12.2002Z" fill="white"/>
<path d="M94.5615 0.137699H96.5368L91.8807 22.5001H89.9336L94.5615 0.137699Z" fill="white"/>
<path d="M103.857 0.798657C104.252 1.27602 104.365 1.99205 104.195 2.94677L100.696 19.6359C100.489 20.5907 100.085 21.3251 99.4826 21.8391C98.8994 22.3716 98.1563 22.6378 97.2533 22.6378H96.9711C96.0869 22.6378 95.4567 22.3716 95.0804 21.8391C94.6666 21.3251 94.5631 20.5907 94.77 19.6359L98.241 2.94677C98.4103 2.02877 98.8054 1.31273 99.4262 0.798657C100.047 0.266219 100.8 0 101.684 0H101.938C102.37 0 102.747 0.06426 103.066 0.19278C103.386 0.321299 103.65 0.523258 103.857 0.798657ZM102.22 2.91923C102.314 2.49695 102.295 2.23073 102.163 2.12057C102.032 1.99205 101.815 1.92779 101.514 1.92779H101.317C101.016 1.92779 100.781 1.99205 100.611 2.12057C100.442 2.23073 100.31 2.49695 100.216 2.91923L96.6889 19.691C96.5949 20.1133 96.6137 20.3887 96.7454 20.5172C96.8771 20.6457 97.0934 20.71 97.3944 20.71H97.6202C97.8647 20.71 98.0811 20.6549 98.2692 20.5448C98.4573 20.453 98.5984 20.1684 98.6925 19.691L102.22 2.91923Z" fill="white"/>
<path d="M110.996 0.137699H113V22.5001H106.481L106.679 11.4291L104.365 22.5001H102.39L107.018 0.137699H108.88L108.682 11.2087L110.996 0.137699Z" fill="white"/>
</svg>
