<svg width="77" height="35" viewBox="0 0 77 35" fill="none" xmlns="http://www.w3.org/2000/svg">
<g filter="url(#filter0_i_11_2)">
<path d="M67.1546 8.74197C67.39 8.94271 67.573 9.16985 67.7508 9.41976C67.7714 9.44823 67.7921 9.47674 67.8132 9.50607C67.8304 9.53173 67.8476 9.55735 67.8647 9.58375C67.9184 9.64699 67.9184 9.64699 68.002 9.65069C68.0337 9.64867 68.0649 9.64664 68.0975 9.64457C69.1698 9.60424 70.2724 9.95759 71.1352 10.5738C71.1502 10.5846 71.1656 10.5953 71.181 10.6064C71.5013 10.8372 71.8027 11.0904 72.0852 11.3646C72.1019 11.3808 72.1182 11.3969 72.1358 11.4135C72.252 11.5282 72.252 11.5282 72.252 11.5882C72.2696 11.5882 72.2876 11.5882 72.3061 11.5882C72.6048 11.8629 72.8939 12.2557 73.0928 12.6029C73.1267 12.662 73.1614 12.7205 73.1966 12.779C73.6446 13.5317 73.9697 14.3266 74.2122 15.1651C74.2196 15.1903 74.2271 15.2156 74.2346 15.2416C74.4471 15.9739 74.573 16.7289 74.668 17.4837C74.6728 17.5206 74.6772 17.5576 74.6821 17.5946C74.8458 18.8591 74.8176 20.2032 74.6482 21.4647C74.6451 21.4862 74.6425 21.5076 74.6394 21.5296C74.397 23.3446 73.8588 25.114 73.0994 26.7843C73.0897 26.8053 73.08 26.8264 73.0704 26.848C73.0506 26.8908 73.0294 26.9332 73.0079 26.9752C72.9467 27.0919 72.9467 27.0919 72.9406 27.2192C73.0123 27.3191 73.0959 27.4051 73.1826 27.4925C73.2182 27.5287 73.2538 27.5651 73.2895 27.6014C73.3071 27.6195 73.3247 27.6375 73.3427 27.6561C73.4109 27.7274 73.4765 27.8008 73.5416 27.8747C73.605 27.946 73.6705 28.0153 73.7356 28.0847C73.8175 28.1712 73.8976 28.2582 73.9763 28.3472C74.0806 28.4642 74.1884 28.5775 74.2975 28.6903C74.316 28.7099 74.3349 28.7295 74.3543 28.7496C74.4326 28.8311 74.5109 28.9119 74.5932 28.9895C74.6482 29.0457 74.6482 29.0457 74.6482 29.0991C74.6645 29.1062 74.6808 29.1134 74.6975 29.1208C74.7573 29.1527 74.7921 29.1825 74.8374 29.2318C74.8524 29.2481 74.8678 29.2644 74.8832 29.2811C74.8999 29.299 74.9162 29.3168 74.9329 29.3351C75.097 29.5098 75.2651 29.6798 75.4367 29.8473C75.46 29.8701 75.4838 29.893 75.5075 29.9165C75.5797 29.9866 75.6514 30.0567 75.7236 30.1268C75.8199 30.2204 75.9158 30.3141 76.0122 30.4079C76.0338 30.4288 76.0553 30.4497 76.0773 30.4713C76.1904 30.5817 76.2991 30.6941 76.4029 30.8129C76.4469 30.8629 76.4927 30.9111 76.5389 30.9593C76.736 31.181 76.9943 31.5274 77 31.8335C76.9925 31.9042 76.9855 31.9682 76.9626 32.0354C76.9446 32.0354 76.9265 32.0354 76.908 32.0354C76.9045 32.0508 76.9014 32.0662 76.8979 32.0821C76.8808 32.1428 76.8566 32.1935 76.8262 32.2489C76.8086 32.2489 76.7906 32.2489 76.7721 32.2489C76.7703 32.2643 76.7685 32.2797 76.7668 32.2956C76.7334 32.3869 76.6946 32.4142 76.6084 32.4624C76.127 32.5177 75.5814 32.3636 75.1925 32.0887C75.1643 32.0689 75.1643 32.0689 75.1353 32.0486C74.9003 31.8819 74.6768 31.7019 74.4572 31.5164C74.3785 31.4504 74.2984 31.3866 74.2174 31.323C74.107 31.2349 74.0058 31.1419 73.9068 31.0417C73.8632 30.9991 73.8192 30.9605 73.7717 30.9226C73.6956 30.8612 73.6283 30.7961 73.5588 30.7274C73.5209 30.6902 73.4826 30.6531 73.4444 30.616C73.3858 30.5587 73.3269 30.5013 73.2684 30.4439C73.2376 30.4139 73.2068 30.3839 73.176 30.3539C73.0224 30.2048 72.8706 30.0563 72.7302 29.8951C72.6524 29.8065 72.5688 29.7227 72.4865 29.6379C72.3272 29.4728 72.1785 29.3035 72.0342 29.1258C71.98 29.063 71.9255 29.0009 71.8705 28.9389C71.7565 29.0759 71.6456 29.2146 71.5387 29.3571C71.2923 29.6839 71.02 29.9852 70.7383 30.283C70.6816 30.3439 70.6266 30.4058 70.572 30.4688C70.4968 30.5537 70.4158 30.6254 70.3283 30.6979C70.246 30.77 70.1694 30.847 70.092 30.9243C69.9631 31.0524 69.8306 31.1701 69.6863 31.2819C69.619 31.3347 69.5534 31.3893 69.4883 31.4449C69.2595 31.6395 69.014 31.8109 68.7663 31.982C68.7447 31.9972 68.7227 32.0124 68.7003 32.0281C68.0051 32.5103 67.2382 32.9271 66.4422 33.2255C66.3595 33.257 66.2781 33.2904 66.1962 33.3246C65.9881 33.4099 65.7756 33.4821 65.5618 33.5535C65.5406 33.5606 65.52 33.5676 65.4984 33.5748C64.8459 33.7925 64.1863 33.958 63.5109 34.0907C63.4828 34.0963 63.455 34.1018 63.426 34.1075C62.0418 34.3727 60.5475 34.4085 59.154 34.1975C59.1259 34.1934 59.0977 34.1893 59.0687 34.185C57.449 33.9411 55.986 33.1666 55.0075 31.873C54.9551 31.8029 54.9036 31.7323 54.8517 31.6617C54.8394 31.6454 54.8271 31.6291 54.8139 31.6123C54.6234 31.362 54.4958 31.0709 54.3633 30.7883C54.3426 30.7448 54.322 30.7014 54.3013 30.658C54.2212 30.4893 54.1526 30.3194 54.091 30.1435C54.0817 30.1168 54.0725 30.0902 54.0628 30.0628C53.6452 28.8538 53.493 27.5946 53.4631 26.3229C53.4626 26.297 53.4618 26.271 53.4613 26.2442C53.4235 24.4372 53.7579 22.6191 54.2256 20.8775C54.2335 20.8481 54.2414 20.8187 54.2494 20.7884C54.3664 20.3542 54.5085 19.9291 54.6559 19.5042C54.6858 19.4172 54.7144 19.3299 54.743 19.2424C54.982 18.5055 55.3278 17.8095 55.6688 17.1137C55.682 17.0866 55.6952 17.0595 55.7088 17.0315C55.8879 16.6672 56.089 16.316 56.2949 15.9659C56.3112 15.9383 56.3275 15.9107 56.3442 15.8823C56.529 15.567 56.7173 15.2555 56.9215 14.9515C56.9439 14.9167 56.9668 14.8818 56.9892 14.8469C57.5573 13.974 58.1931 13.1247 58.909 12.3623C58.9512 12.3168 58.993 12.2711 59.0352 12.2255C59.0533 12.2056 59.0718 12.1857 59.0907 12.1652C59.1254 12.1268 59.1606 12.0881 59.195 12.0491C59.3089 11.9192 59.4286 11.7959 59.5522 11.6748C59.5716 11.656 59.5905 11.6372 59.6103 11.6178C59.6508 11.5784 59.6908 11.539 59.7313 11.4996C59.792 11.4399 59.8532 11.3799 59.9139 11.32C59.9535 11.2815 59.9927 11.2429 60.0323 11.2043C60.0503 11.1867 60.0679 11.1691 60.0864 11.1509C60.207 11.0334 60.3324 10.9226 60.4613 10.8141C60.4912 10.7884 60.5216 10.7627 60.5515 10.737C62.0044 9.50525 65.252 7.17938 67.1546 8.74197ZM63.7833 10.3336C63.7415 10.3623 63.7415 10.3623 63.6992 10.3917C63.6266 10.4426 63.5549 10.4945 63.4836 10.5471C63.4418 10.5778 63.4418 10.5778 63.3996 10.6092C63.0846 10.8428 62.7858 11.0932 62.4972 11.3575C62.4408 11.4088 62.3841 11.4599 62.3278 11.511C62.2851 11.5495 62.2428 11.588 62.2006 11.6265C62.1804 11.6449 62.1597 11.6632 62.139 11.6821C62.1196 11.6995 62.1007 11.7169 62.0814 11.7349C62.0642 11.7503 62.047 11.7658 62.0294 11.7817C61.9846 11.8302 61.9608 11.8767 61.9318 11.9352C61.8957 11.9536 61.8592 11.9713 61.8226 11.9886C61.7681 12.0407 61.7681 12.0407 61.714 12.1037C61.6295 12.1983 61.5437 12.2916 61.4561 12.3834C61.321 12.525 61.1921 12.6696 61.068 12.8209C60.9862 12.9199 60.9017 13.0169 60.8172 13.1136C60.5902 13.3745 60.386 13.6535 60.1797 13.9301C60.1524 13.9663 60.1256 14.0025 60.0983 14.0386C59.9302 14.2633 59.7718 14.4946 59.6138 14.7263C59.6033 14.7415 59.5932 14.7566 59.5822 14.7722C59.4343 14.989 59.2922 15.2088 59.154 15.432C59.1329 15.4666 59.1329 15.4666 59.1109 15.5018C58.2872 16.8407 57.592 18.2487 57.0693 19.7269C57.0416 19.8051 57.0134 19.8833 56.9853 19.9615C56.7618 20.5805 56.5567 21.1989 56.404 21.8384C56.3992 21.8581 56.3944 21.8779 56.3895 21.8982C56.1673 22.836 56.0142 23.7876 55.9412 24.748C55.9372 24.7981 55.9372 24.7981 55.9332 24.8493C55.9095 25.1845 55.9073 25.5199 55.9068 25.8558C55.9068 25.8857 55.9068 25.9157 55.9068 25.9465C55.9082 27.3785 56.1119 28.8993 56.8942 30.1401C56.9043 30.1564 56.9144 30.1728 56.925 30.1897C57.5181 31.1294 58.4883 31.6089 59.5593 31.8601C61.4482 32.2814 63.5074 32.0608 65.281 31.3146C65.3237 31.2972 65.366 31.2797 65.4086 31.2623C65.6467 31.1633 65.8684 31.0504 66.088 30.9163C66.1654 30.8693 66.2433 30.8259 66.3243 30.7841C67.0608 30.3946 67.7292 29.8951 68.347 29.3441C68.3914 29.3045 68.4363 29.2652 68.4812 29.2261C68.6897 29.0444 68.8886 28.8567 69.0699 28.6487C69.106 28.6082 69.1429 28.5685 69.1803 28.5292C69.3862 28.3135 69.5666 28.0813 69.7466 27.8445C69.7598 27.827 69.7734 27.8095 69.7871 27.7915C69.8623 27.6932 69.9362 27.5943 70.0093 27.4944C70.0348 27.4595 70.0608 27.4247 70.0863 27.39C70.1263 27.3361 70.1655 27.2817 70.2046 27.2272C70.2165 27.2108 70.2288 27.1943 70.2416 27.1774C70.3072 27.0843 70.3072 27.0843 70.3058 26.9749C70.2566 26.8988 70.2038 26.8288 70.1466 26.7584C69.8333 26.3676 69.5451 25.9573 69.2564 25.5488C69.2415 25.5276 69.2265 25.5063 69.2107 25.4844C68.9696 25.1427 68.7359 24.7964 68.5027 24.4494C68.4812 24.4178 68.4812 24.4178 68.4596 24.3855C68.2735 24.1086 68.0904 23.8299 67.9105 23.5491C67.8524 23.4583 67.793 23.3681 67.7332 23.2782C67.5167 22.9422 67.3992 22.6406 67.4595 22.2388C67.5022 22.2273 67.5022 22.2273 67.5462 22.2155C67.6443 22.1896 67.6443 22.1896 67.712 22.1578C67.8832 22.0984 68.1014 22.0993 68.2722 22.1595C68.4477 22.2581 68.5925 22.3977 68.739 22.5325C68.7729 22.561 68.8072 22.5893 68.8411 22.6176C69.0694 22.8126 69.2872 23.0274 69.4826 23.2538C69.5407 23.3202 69.601 23.3841 69.6617 23.4484C69.7743 23.5696 69.8808 23.6946 69.986 23.8222C70.0449 23.8924 70.1061 23.96 70.1686 24.0273C70.2742 24.1407 70.3732 24.2577 70.4717 24.3768C70.5408 24.4599 70.6116 24.5414 70.6825 24.6229C70.8048 24.7628 70.9214 24.9062 71.0345 25.0528C71.0983 25.134 71.1594 25.196 71.2444 25.2552C71.9132 23.8561 72.1829 22.2734 72.3061 20.744C72.3092 20.7081 72.3092 20.7081 72.3122 20.6714C72.4504 18.8727 72.2511 16.9638 71.5981 15.2719C71.5911 15.2529 71.5836 15.234 71.5766 15.2144C71.185 14.1943 70.554 13.2151 69.6379 12.5759C69.6098 12.5558 69.5816 12.5358 69.5526 12.5153C69.1398 12.2375 68.6541 12.0467 68.1674 11.9352C68.1406 11.9288 68.1406 11.9288 68.1133 11.9222C67.1862 11.7075 66.2367 11.928 65.3382 12.1626C64.8476 12.2898 64.3839 12.3164 63.8788 12.3122C63.8216 12.312 63.7644 12.3117 63.7076 12.3115C63.5694 12.3109 63.4313 12.31 63.2931 12.3089C63.2641 12.2097 63.2729 12.1493 63.2988 12.0486C63.3063 12.0191 63.3138 11.9897 63.3217 11.9594C63.3296 11.9289 63.3376 11.8983 63.3459 11.8668C63.3618 11.8061 63.3772 11.7455 63.3926 11.6849C63.3996 11.658 63.4066 11.6311 63.4137 11.6035C63.4322 11.5335 63.4322 11.5335 63.4291 11.4547C63.4471 11.4547 63.4652 11.4547 63.4836 11.4547C63.4951 11.4302 63.5061 11.4057 63.518 11.3805C63.8198 10.7422 64.5198 10.4875 65.1609 10.2527C65.7901 10.0291 66.4224 9.87136 67.078 9.74632C66.0462 8.96591 64.6716 9.71255 63.7833 10.3336Z" fill="white"/>
<path d="M19.6504 1.43299C19.7811 1.44794 19.8276 1.48356 19.9159 1.57813C19.9437 1.64127 19.9567 1.69686 19.9704 1.76499C19.9883 1.76499 20.0063 1.76499 20.0248 1.76499C20.0158 1.80903 20.0068 1.85308 19.9976 1.89846C19.9796 1.89846 19.9617 1.89846 19.9431 1.89846C19.9515 1.92385 19.9599 1.94925 19.9686 1.97542C20.0043 2.09851 20.015 2.22153 20.0258 2.3487C20.0292 2.38681 20.0292 2.38681 20.0327 2.42569C20.0375 2.47957 20.0421 2.53346 20.0467 2.58736C20.0536 2.66733 20.0608 2.74727 20.068 2.8272C20.1224 3.43968 20.1395 4.05161 20.1388 4.66623C20.1388 4.69763 20.1388 4.72903 20.1388 4.76134C20.1374 5.76056 20.0892 6.75719 20.031 7.75452C20.0292 7.78428 20.0292 7.78428 20.0275 7.81465C19.9765 8.69163 19.9155 9.56783 19.8508 10.444C19.8403 10.5856 19.8299 10.7273 19.8196 10.869C19.7527 11.7847 19.6837 12.7002 19.6031 13.6148C19.5132 14.6346 19.4577 15.6566 19.4019 16.6787C19.3983 16.7445 19.3946 16.8102 19.3909 16.876C19.3884 16.9213 19.3859 16.9665 19.3834 17.0118C19.3822 17.0325 19.381 17.0532 19.3798 17.0746C19.3707 17.239 19.3683 17.4029 19.3713 17.5675C19.38 17.5405 19.3887 17.5134 19.3978 17.4856C19.8846 15.9815 20.4421 14.4893 21.2631 13.1254C21.3045 13.0565 21.3451 12.9873 21.3858 12.9179C21.651 12.4697 21.9612 12.0556 22.3121 11.6682C22.3249 11.6539 22.3378 11.6395 22.351 11.6247C22.7378 11.1928 23.1747 10.8271 23.7553 10.6806C23.775 10.6755 23.7948 10.6705 23.8151 10.6653C24.4553 10.57 25.1093 10.7281 25.6436 11.081C26.7253 11.8806 26.9574 13.438 27.1352 14.6696C27.2583 15.541 27.3219 16.4158 27.3684 17.2939C27.3709 17.3397 27.3709 17.3397 27.3734 17.3864C27.4466 18.7582 27.435 20.1326 27.4333 21.5057C27.433 21.7639 27.4329 22.0222 27.4327 22.2805C27.4325 22.8094 27.432 23.3383 27.4314 23.8672C27.4357 23.8489 27.4399 23.8307 27.4444 23.812C27.8507 22.0918 27.8507 22.0918 28.0253 21.4364C28.034 21.4034 28.0427 21.3704 28.0518 21.3365C28.4174 19.9552 28.8394 18.5909 29.3038 17.2387C29.3511 17.1007 29.3975 16.9625 29.4435 16.824C29.7333 15.9546 30.0586 15.0982 30.4267 14.2575C30.4343 14.2401 30.4419 14.2226 30.4498 14.2046C31.3375 12.179 31.3375 12.179 31.9243 11.4814C31.937 11.466 31.9498 11.4506 31.9629 11.4347C32.3695 10.9446 32.3695 10.9446 32.6322 10.8941C32.9117 10.8695 33.1965 10.9085 33.4219 11.081C33.4444 11.092 33.4669 11.103 33.49 11.1144C33.7953 11.3239 33.8763 11.7548 33.9401 12.0947C33.9731 12.2825 33.9918 12.4715 34.0093 12.6612C34.0111 12.6804 34.0128 12.6995 34.0147 12.7192C34.1124 13.7899 34.081 14.8776 34.0673 15.9517C34.0671 15.9741 34.0668 15.9964 34.0665 16.0194C34.0518 17.2134 34.0137 18.4067 33.975 19.6001C33.9626 19.9831 33.9505 20.3661 33.9384 20.7491C33.9366 20.8069 33.9348 20.8647 33.933 20.9225C33.9316 20.9649 33.9316 20.9649 33.9302 21.0083C33.9251 21.1712 33.9199 21.3341 33.9146 21.497C33.8925 22.1802 33.8734 22.8635 33.8576 23.5469C33.8572 23.5651 33.8568 23.5834 33.8563 23.6022C33.8509 23.8379 33.8462 24.0736 33.8423 24.3093C33.842 24.3266 33.8417 24.344 33.8414 24.3619C33.831 24.9834 33.8297 25.6049 33.8305 26.2264C33.8306 26.2869 33.8307 26.3474 33.8307 26.4079C33.8312 26.796 33.8317 27.1841 33.8331 27.5722C33.8337 27.7292 33.8341 27.8861 33.8344 28.0431C33.8345 28.1348 33.8348 28.2264 33.8353 28.3181C33.8373 28.6956 33.8316 29.0714 33.808 29.4482C33.8061 29.4803 33.8042 29.5125 33.8022 29.5457C33.7601 30.1422 33.7601 30.1422 33.5619 30.3366C33.4525 30.4188 33.3324 30.4664 33.2041 30.5138C33.1774 30.5243 33.1506 30.5348 33.123 30.5456C32.894 30.6325 32.894 30.6325 32.7684 30.6206C32.7309 30.5862 32.6947 30.5505 32.6595 30.5138C32.6389 30.5064 32.6183 30.499 32.597 30.4914C32.5062 30.4532 32.4504 30.4018 32.3787 30.3353C32.271 30.2365 32.1621 30.1407 32.0484 30.0486C31.8094 29.8125 31.8898 29.2548 31.8904 28.9476C31.8923 28.5308 31.9107 28.1148 31.9341 27.6988C31.9355 27.6736 31.9369 27.6484 31.9383 27.6224C31.9979 26.5651 32.0819 25.5099 32.1703 24.4546C32.1885 24.2368 32.2066 24.019 32.2247 23.8013C32.292 22.9906 32.36 22.18 32.4302 21.3697C32.5564 19.9103 32.674 18.4511 32.7646 16.9892C32.7683 16.9285 32.7721 16.8679 32.7759 16.8072C32.8512 15.603 32.8937 14.3955 32.8263 13.1898C32.8252 13.1705 32.8242 13.1513 32.8231 13.1315C32.8111 12.9245 32.7905 12.7242 32.7412 12.5225C31.9422 13.8411 31.3488 15.2414 30.8047 16.6766C30.7816 16.7373 30.7585 16.7979 30.7354 16.8586C29.8317 19.2262 29.1995 21.6972 28.2448 26.5315C28.2403 26.5585 28.2403 26.5585 28.2357 26.5861C28.1107 27.3369 28.0048 28.0903 27.9113 28.8455C27.9087 28.8662 27.9061 28.8869 27.9035 28.9082C27.7652 30.0192 27.66 31.1332 27.5616 32.2483C27.5592 32.2763 27.5567 32.3042 27.5541 32.333C27.5431 32.4571 27.5323 32.5812 27.522 32.7053C27.5035 32.9226 27.4792 33.1379 27.4454 33.3534C27.4421 33.3746 27.4389 33.3957 27.4355 33.4174C27.4004 33.6307 27.3352 33.7927 27.159 33.9306C26.9324 34.0532 26.6593 34.193 26.3966 34.1708C26.3285 34.1241 26.3285 34.1241 26.2605 34.064C26.2167 34.0407 26.2167 34.0407 26.1721 34.0168C26.0641 33.9576 25.9798 33.8827 25.8911 33.7988C25.8617 33.7713 25.8321 33.7437 25.8026 33.7163C25.7883 33.7029 25.774 33.6895 25.7592 33.6758C25.7167 33.6377 25.6725 33.6033 25.627 33.5687C25.348 33.3245 25.3797 32.7158 25.358 32.3745C25.3328 31.9376 25.3246 31.5002 25.3176 31.0627C25.3172 31.0348 25.3172 31.0348 25.3167 31.0063C25.2861 29.0865 25.351 27.1662 25.4096 25.2474C25.4118 25.1738 25.4141 25.1002 25.4163 25.0267C25.4169 25.0085 25.4174 24.9903 25.418 24.9715C25.5273 21.6363 25.5273 21.6363 24.5178 12.7894C24.3442 12.7979 24.2693 12.8479 24.1519 12.9629C24.1364 12.9775 24.121 12.9921 24.1051 13.0072C24.0606 13.0498 24.0168 13.0929 23.9731 13.1364C23.9531 13.1561 23.9331 13.1757 23.9124 13.196C23.7361 13.38 23.597 13.5936 23.4558 13.8037C23.4427 13.8231 23.4296 13.8424 23.4162 13.8623C22.8406 14.7195 22.4044 15.6576 22.0126 16.6066C21.9987 16.6398 21.9849 16.6731 21.971 16.7064C21.8783 16.9299 21.7939 17.1555 21.7148 17.384C21.7029 17.4182 21.691 17.4523 21.6791 17.4864C21.6556 17.554 21.6321 17.6216 21.6087 17.6892C21.5818 17.7668 21.5548 17.8444 21.5276 17.9219C20.6825 20.3485 20.175 22.893 19.5078 32.1515C19.5078 32.1713 19.5078 32.1912 19.5079 32.2116C19.5084 32.4695 19.5084 32.4695 19.51 32.7274C19.5153 33.3927 19.5153 33.3927 19.4852 33.6756C19.4833 33.6942 19.4814 33.7129 19.4795 33.732C19.458 33.8997 19.3907 34.0254 19.2777 34.1508C19.262 34.1686 19.2463 34.1863 19.2302 34.2046C19.1787 34.2528 19.1367 34.2765 19.0718 34.3043C19.0379 34.3199 19.0379 34.3199 19.0032 34.3359C18.5418 34.5433 18.5418 34.5433 18.4183 34.5179C18.3626 34.4747 18.3082 34.4301 18.2549 34.3844C18.2337 34.3767 18.2125 34.369 18.1907 34.3611C18.1006 34.3234 18.0451 34.2717 17.974 34.2059C17.9481 34.1821 17.9221 34.1583 17.8954 34.1338C17.8702 34.1108 17.8451 34.0878 17.8192 34.064C17.7611 34.0136 17.7025 33.9637 17.6438 33.9139C17.5334 33.8184 17.526 33.7485 17.5153 33.6057C17.5112 33.5343 17.508 33.4629 17.5051 33.3915C17.5039 33.3636 17.5028 33.3356 17.5015 33.3068C17.4248 31.4023 17.4569 29.4957 17.5026 27.5909C17.5031 27.5728 17.5035 27.5547 17.5039 27.536C17.5237 26.7128 17.5469 25.8897 17.5747 25.0667C17.5758 25.0346 17.5769 25.0024 17.578 24.9693C17.5991 24.3483 17.6239 23.7274 17.6565 23.1068C17.6579 23.0796 17.6579 23.0796 17.6593 23.0518C17.7873 20.6037 17.9672 18.16 18.3193 14.4441C18.3284 14.3558 18.3374 14.2676 18.3463 14.1793C18.3481 14.1618 18.3499 14.1443 18.3517 14.1262C18.3831 13.8176 18.4096 13.5087 18.4357 13.1996C18.4895 12.5641 18.5556 11.9304 18.6267 11.2965C18.643 11.1514 18.659 11.0062 18.6751 10.8611C18.7373 10.2992 18.8004 9.7373 18.8643 9.17554C19.0277 7.73916 19.1901 6.30369 19.2896 4.86141C19.292 4.82681 19.2944 4.79222 19.2969 4.75659C19.3478 4.00796 19.3831 3.26137 19.3707 2.51093C19.3675 2.29283 19.3691 2.07796 19.3933 1.86092C19.3952 1.84271 19.3971 1.82451 19.3991 1.80576C19.4202 1.64226 19.4646 1.45751 19.6504 1.43299Z" fill="white"/>
<path d="M46.8428 9.25581C46.8719 9.25585 46.9014 9.2559 46.9313 9.2559C48.0458 9.25883 49.1542 9.45897 50.1411 9.98657C50.1578 9.99524 50.1741 10.0039 50.1912 10.0128C50.4262 10.1363 50.64 10.278 50.849 10.4403C50.8728 10.4581 50.8961 10.4757 50.9208 10.4939C51.2596 10.7543 51.5605 11.0601 51.8192 11.3972C51.8756 11.4706 51.9341 11.541 51.9944 11.6115C52.1387 11.7884 52.2557 11.9815 52.3741 12.1754C52.3886 12.1995 52.4036 12.2235 52.4185 12.2483C52.5329 12.4364 52.6451 12.6256 52.7551 12.8161C52.7692 12.8399 52.7828 12.8638 52.7969 12.8884C53.3738 13.8954 53.6294 15.0113 53.7354 16.1528C53.7394 16.1914 53.7394 16.1914 53.7434 16.2307C53.8806 17.7214 53.6611 19.2445 53.2998 20.6906C53.2915 20.7248 53.2827 20.7589 53.2739 20.7941C53.0578 21.6524 52.7674 22.4881 52.4282 23.3066C52.4176 23.3324 52.4071 23.3582 52.3961 23.3848C52.2865 23.6482 52.169 23.9074 52.0441 24.1641C52.0194 24.2156 51.9952 24.2673 51.971 24.3192C51.8333 24.6146 51.6771 24.8984 51.5165 25.1823C51.4778 25.2512 51.4395 25.3204 51.4012 25.3897C51.1438 25.8572 50.8649 26.3131 50.5586 26.7516C50.5177 26.8101 50.4772 26.8688 50.4363 26.9274C50.0874 27.431 49.7292 27.9281 49.3319 28.3966C49.2571 28.485 49.1902 28.5713 49.1335 28.672C49.2989 28.902 49.4683 29.1281 49.6443 29.3501C49.6998 29.4201 49.7543 29.4907 49.8093 29.5612C50.1336 29.9758 50.4755 30.3778 50.8367 30.7622C50.89 30.8197 50.9423 30.8778 50.9942 30.9364C51.0915 31.0459 51.1931 31.1511 51.2948 31.2563C51.432 31.3984 51.5636 31.5424 51.6877 31.6957C51.733 31.7507 51.7788 31.8045 51.8263 31.8579C51.8395 31.8732 51.8531 31.8886 51.8672 31.9044C51.8932 31.934 51.9196 31.9635 51.946 31.9929C52.1457 32.2198 52.1721 32.4397 52.1563 32.7294C52.1365 32.8854 52.0995 33.0082 51.9926 33.1298C51.8302 33.2432 51.6802 33.2757 51.4822 33.25C51.0638 33.1486 50.7439 32.9689 50.4262 32.685C50.3884 32.6514 50.3505 32.6185 50.3122 32.5856C50.0852 32.389 49.8753 32.1806 49.6782 31.9553C49.6514 31.9255 49.625 31.8957 49.5981 31.866C49.3988 31.6435 49.2078 31.4166 49.0248 31.1812C49.0094 31.1614 48.994 31.1417 48.9782 31.1214C48.7524 30.8315 48.5346 30.5371 48.3226 30.2375C48.3085 30.2175 48.2944 30.1975 48.2799 30.1769C48.2473 30.131 48.2152 30.0848 48.1835 30.0385C48.1664 30.014 48.1496 29.9895 48.132 29.9643C48.1166 29.9418 48.1012 29.9193 48.0854 29.8961C48.0718 29.8797 48.0581 29.8634 48.0445 29.8465C47.9882 29.8407 47.9882 29.8407 47.9499 29.8803C47.9345 29.8959 47.9186 29.9114 47.9028 29.9275C47.8773 29.9532 47.8773 29.9532 47.8509 29.9793C47.8328 29.9977 47.8148 30.0161 47.7959 30.035C47.7585 30.0722 47.7211 30.1094 47.6837 30.1466C47.6665 30.1634 47.6498 30.1802 47.6322 30.1976C47.5464 30.2808 47.4562 30.3577 47.3638 30.4338C47.3356 30.4573 47.3079 30.481 47.2802 30.5047C46.4825 31.1834 45.6201 31.7758 44.6653 32.2242C44.6138 32.2487 44.5632 32.2742 44.5122 32.3C43.2043 32.9505 41.6101 33.1473 40.2022 32.7294C40.1711 32.7203 40.1401 32.7111 40.108 32.7017C39.9237 32.6445 39.7499 32.5716 39.5759 32.4891C39.5599 32.4817 39.5439 32.4743 39.5274 32.4666C38.6405 32.0541 37.8283 31.439 37.2408 30.6646C37.2077 30.6217 37.1732 30.5798 37.1386 30.538C36.9408 30.2972 36.7858 30.0375 36.6351 29.7664C36.6202 29.74 36.6202 29.74 36.6051 29.7132C35.7209 28.1282 35.54 26.1795 35.5391 24.406C35.539 24.3755 35.539 24.345 35.539 24.3136C35.5399 23.3127 35.6158 22.3214 35.7637 21.3313C35.7668 21.3102 35.77 21.2892 35.7732 21.2676C36.1112 19.0154 36.7457 16.8192 37.7515 14.7647C37.7721 14.7224 37.7721 14.7224 37.7932 14.6793C38.1575 13.9373 38.5829 13.1959 39.1402 12.5758C39.1777 12.5292 39.2152 12.4825 39.2525 12.4357C39.3657 12.2996 39.4889 12.1748 39.615 12.0503C39.6344 12.0311 39.6538 12.0118 39.6737 11.992C39.692 11.9743 39.7102 11.9565 39.729 11.9382C39.7454 11.9222 39.7618 11.9062 39.7787 11.8896C39.821 11.8551 39.821 11.8551 39.8754 11.8551C39.8754 11.8375 39.8754 11.8199 39.8754 11.8017C39.9361 11.7506 39.9968 11.7033 40.0609 11.6566C40.0803 11.6424 40.0998 11.6282 40.1199 11.6136C40.7425 11.1689 41.4637 10.8335 42.2461 10.8374C42.2669 10.8373 42.2877 10.8372 42.3092 10.8371C42.4356 10.8373 42.5554 10.847 42.6801 10.8674C42.6894 10.8468 42.6894 10.8468 42.6988 10.8257C42.763 10.7089 42.8382 10.6055 42.9343 10.5119C43.0086 10.4409 43.0086 10.4409 43.0746 10.3587C43.5974 9.73476 44.4268 9.50089 45.2091 9.38094C45.2443 9.37555 45.2791 9.37016 45.3152 9.36459C45.8247 9.28958 46.3276 9.25482 46.8428 9.25581ZM43.2791 11.1611C43.2989 11.191 43.2989 11.191 43.3189 11.2216C43.3361 11.2478 43.3533 11.2741 43.3711 11.3012C43.3881 11.3272 43.4052 11.3532 43.4228 11.38C43.5252 11.5428 43.5252 11.5428 43.5208 11.6249C43.4857 11.7283 43.436 11.8316 43.3336 11.8818C43.295 11.8861 43.2562 11.8891 43.2174 11.8914C42.5238 11.9385 41.9126 12.0899 41.3458 12.4958C41.3225 12.5121 41.2991 12.5285 41.275 12.5454C40.9296 12.8013 40.6277 13.1244 40.3719 13.4655C40.3396 13.5085 40.3062 13.5508 40.2729 13.593C39.9593 13.9974 39.7164 14.4635 39.4946 14.9215C39.4752 14.9614 39.4555 15.0011 39.4355 15.0408C39.0025 15.9027 38.7066 16.8253 38.4484 17.7498C38.4337 17.8026 38.4188 17.8552 38.4038 17.9079C38.1008 18.9843 37.9225 20.1048 37.8147 21.2149C37.8066 21.298 37.7982 21.3811 37.7898 21.4642C37.785 21.5133 37.7801 21.5624 37.7753 21.6116C37.7722 21.6421 37.7722 21.6421 37.7691 21.6732C37.7172 22.225 37.7176 22.7796 37.7175 23.3333C37.7175 23.3534 37.7174 23.3734 37.7174 23.3941C37.7172 24.0177 37.7273 24.6357 37.8059 25.2552C37.8095 25.284 37.8095 25.284 37.8132 25.3134C37.9997 26.8207 38.2758 28.6728 39.5486 29.6863C40.0894 30.0976 40.6688 30.353 41.3458 30.4604C41.3768 30.4657 41.3768 30.4657 41.4084 30.4711C42.3567 30.6044 43.3433 30.2578 44.1778 29.8465C44.202 29.8346 44.2262 29.8228 44.2508 29.8106C44.5557 29.6597 44.8532 29.5085 45.1308 29.3126C45.1669 29.2879 45.2034 29.2633 45.2399 29.2387C45.492 29.0672 45.7358 28.8876 45.9747 28.6987C46.0143 28.6678 46.0143 28.6678 46.0548 28.6363C46.2092 28.5141 46.3575 28.3865 46.5036 28.2545C46.5837 28.1829 46.666 28.1143 46.7496 28.0465C46.7993 27.9971 46.8239 27.9645 46.8464 27.8979C46.8213 27.8249 46.8213 27.8249 46.7738 27.7495C46.7566 27.7202 46.7399 27.6909 46.7223 27.6607C46.7038 27.6291 46.6849 27.5975 46.666 27.5659C46.6466 27.5332 46.6277 27.5004 46.6088 27.4677C46.5612 27.3857 46.5128 27.3039 46.4644 27.2222C46.4125 27.1346 46.3615 27.0466 46.31 26.9587C46.284 26.914 46.2581 26.8694 46.2317 26.8249C46.127 26.6459 46.0266 26.4647 45.9272 26.2829C45.8388 26.1212 45.7503 25.9607 45.65 25.8058C45.3684 25.3659 45.1348 24.8952 44.8967 24.4318C44.8716 24.383 44.8466 24.3342 44.821 24.2856C44.2864 23.2514 44.2864 23.2514 44.4026 22.7471C44.4228 22.6926 44.4228 22.6926 44.4792 22.6509C44.5056 22.6471 44.532 22.6432 44.5588 22.6392C44.5773 22.635 44.5953 22.6307 44.6142 22.6262C44.7753 22.5953 44.7753 22.5953 44.8518 22.6411C44.8976 22.6863 44.9368 22.7334 44.9759 22.7844C44.9909 22.8026 45.0058 22.8208 45.0212 22.8396C45.0679 22.8968 45.1128 22.9547 45.1581 23.013C45.1854 23.0473 45.2126 23.0817 45.2399 23.116C45.8533 23.8962 46.3998 24.7364 46.933 25.5705C47.2182 26.0163 47.5222 26.4501 47.8267 26.8835C47.9578 26.7803 48.0656 26.6731 48.1668 26.5415C48.18 26.5249 48.1928 26.5084 48.2064 26.4913C48.2319 26.4586 48.2574 26.4258 48.283 26.393C48.3239 26.3402 48.3666 26.2882 48.4088 26.2362C49.0653 25.4052 49.6492 24.4976 50.1134 23.5498C50.1442 23.4869 50.1763 23.4244 50.2084 23.3619C50.9876 21.8233 51.4488 20.129 51.6116 18.4217C51.6142 18.3929 51.6173 18.3641 51.6199 18.3344C51.7101 17.2728 51.6586 16.1736 51.3938 15.1384C51.3832 15.0977 51.3832 15.0977 51.3731 15.0562C51.1205 14.0727 50.6678 13.0148 49.8414 12.3623C49.8076 12.3348 49.8076 12.3348 49.7724 12.3068C48.5505 11.3642 46.8512 11.2204 45.3517 11.2388C45.1748 11.2409 44.9984 11.2426 44.8219 11.2436C44.7933 11.2437 44.7933 11.2437 44.7643 11.2439C44.2671 11.2461 43.7739 11.2062 43.2791 11.1611Z" fill="white"/>
<path d="M16.2126 0.00323452C16.3735 0.0805956 16.5237 0.187164 16.5892 0.354525C16.7406 0.837106 16.7339 1.38332 16.7355 1.88397C16.7357 1.92268 16.7359 1.96138 16.7361 2.00009C16.7367 2.12471 16.7368 2.24932 16.7368 2.37394C16.7368 2.39552 16.7368 2.41708 16.7368 2.4393C16.7365 4.07899 16.5982 5.7088 16.4684 7.34251C16.4442 7.64772 16.4201 7.95293 16.3964 8.25818C16.3943 8.28544 16.3922 8.31266 16.39 8.34074C16.3438 8.93852 16.3047 9.53674 16.2708 10.1353C16.2675 10.1931 16.2641 10.2508 16.2606 10.3085C16.2052 11.2518 16.1733 12.3231 16.4177 13.2442C16.4692 13.4549 16.4602 13.7456 16.3488 13.9372C16.2778 13.9798 16.2354 13.9964 16.1582 14.0173C16.1149 14.0348 16.0718 14.0526 16.0288 14.0707C15.9812 14.0887 15.9336 14.1065 15.8859 14.1241C15.8613 14.1337 15.8367 14.1434 15.8114 14.1534C15.6782 14.1989 15.5841 14.2184 15.4519 14.1624C15.1926 14.0112 14.9971 13.7658 14.8109 13.5382C14.3657 13.0105 13.8567 12.5806 13.1356 12.4958C12.0229 12.4179 11.2874 12.9379 10.4733 13.6215C10.3669 13.712 10.2636 13.8058 10.1616 13.9011C10.0645 13.9906 10.0645 13.9906 10.0042 13.9906C10.0042 14.0082 10.0042 14.0258 10.0042 14.044C9.96802 14.0788 9.96802 14.0788 9.91571 14.1207C9.65633 14.3371 9.41398 14.5803 9.20603 14.8448C9.19085 14.8624 9.17572 14.88 9.1601 14.8982C9.1421 14.8982 9.12415 14.8982 9.10562 14.8982C9.0992 14.913 9.09278 14.9278 9.08617 14.9431C9.04266 15.02 8.98841 15.0761 8.92694 15.1401C8.78913 15.2857 8.661 15.4376 8.5338 15.5922C8.50727 15.6238 8.48069 15.6553 8.45412 15.6869C8.089 16.1213 7.75082 16.5756 7.41739 17.0337C7.39024 17.0708 7.39024 17.0708 7.36261 17.1088C6.98698 17.6298 6.64057 18.1714 6.30093 18.7153C6.28399 18.7425 6.28399 18.7425 6.2667 18.7702C5.94119 19.293 5.64093 19.8295 5.34789 20.3703C5.33342 20.397 5.31894 20.4236 5.30402 20.4511C4.87282 21.2468 4.48822 22.0656 4.14627 22.902C4.11648 22.9743 4.08556 23.0462 4.05447 23.1181C4.03165 23.172 4.00898 23.2259 3.9864 23.2799C3.97828 23.2993 3.97016 23.3186 3.9618 23.3386C3.78668 23.7589 3.63797 24.1863 3.49431 24.6177C3.4654 24.7045 3.43628 24.7911 3.40655 24.8776C2.98131 26.1159 2.64547 27.4132 2.49628 28.7133C2.49125 28.757 2.48595 28.8007 2.48038 28.8443C2.38582 29.5933 2.37136 30.4118 2.51598 31.1545C2.52051 31.1786 2.52504 31.2027 2.52971 31.2276C2.62325 31.7091 2.80378 32.1303 3.11504 32.5158C3.13563 32.5422 3.13563 32.5422 3.15663 32.569C3.37335 32.7955 3.84738 32.8034 4.14297 32.8127C5.64353 32.8433 6.99714 32.1419 8.15258 31.2613C8.17696 31.2428 8.20138 31.2242 8.2265 31.2051C8.35758 31.104 8.48509 30.9986 8.61208 30.8926C8.62646 30.8806 8.64085 30.8686 8.65572 30.8562C8.93556 30.6207 9.20093 30.3714 9.46114 30.1154C9.50932 30.0681 9.55759 30.0208 9.6059 29.9736C9.76259 29.8202 9.91659 29.6663 10.0587 29.4995C10.0736 29.4822 10.0885 29.4649 10.1039 29.4472C10.3272 29.1878 10.5402 28.9229 10.7394 28.6453C10.7516 28.6285 10.7639 28.6116 10.7765 28.5942C10.9312 28.3796 11.0557 28.173 11.1479 27.9246C11.2102 27.7652 11.275 27.6168 11.3657 27.4708C11.3837 27.4708 11.4016 27.4708 11.4202 27.4708C11.4269 27.4543 11.4337 27.4378 11.4406 27.4207C11.4808 27.3537 11.5138 27.3437 11.5835 27.3106C11.5925 27.2842 11.6015 27.2578 11.6108 27.2306C11.6643 27.2021 11.7188 27.1753 11.7741 27.1505C11.7832 27.1417 11.7921 27.1329 11.8014 27.1238C11.9702 27.1113 12.0813 27.1358 12.2302 27.2122C12.2583 27.2265 12.2583 27.2265 12.287 27.241C12.5273 27.369 12.7566 27.5279 12.8548 27.7878C13.0251 28.4493 12.8403 29.1573 12.5094 29.7397C12.4914 29.7725 12.4735 29.8053 12.4555 29.838C12.3372 30.0512 12.1989 30.2429 12.0465 30.4337C12.0239 30.4629 12.0014 30.4922 11.979 30.5214C11.8378 30.7052 11.6881 30.8784 11.5291 31.0477C11.4983 31.0821 11.4677 31.1165 11.4372 31.1511C11.1957 31.4225 10.949 31.6896 10.6697 31.9242C10.6161 31.9708 10.564 32.0181 10.5121 32.0664C10.3035 32.2608 10.0905 32.4415 9.86185 32.6126C9.81204 32.6505 9.76307 32.6893 9.71423 32.7283C9.19076 33.1476 8.61832 33.5043 8.02336 33.818C7.96176 33.8506 7.90046 33.8838 7.83922 33.917C7.00762 34.3633 6.0562 34.6939 5.13005 34.8916C5.09986 34.8985 5.09986 34.8985 5.06906 34.9055C4.1098 35.1191 3.08071 34.9699 2.24368 34.4645C2.14058 34.3971 2.04191 34.3255 1.94415 34.2509C1.90909 34.2248 1.90909 34.2248 1.87331 34.1981C0.847215 33.4073 0.247396 32.3024 0.0810335 31.0451C0.0757482 31.0015 0.0704995 30.9579 0.0652912 30.9142C0.0626846 30.8953 0.0600785 30.8763 0.0573932 30.8567C-0.191386 28.8491 0.41226 26.6688 1.02874 24.7733C1.04435 24.7251 1.05976 24.6769 1.07515 24.6286C1.44085 23.4841 1.92285 22.3675 2.44683 21.2845C2.48687 21.2017 2.5266 21.1188 2.5663 21.0359C2.87954 20.3853 3.2116 19.7393 3.57795 19.1157C3.58931 19.0963 3.60068 19.0768 3.61239 19.0568C3.69996 18.9069 3.78854 18.7577 3.87748 18.6086C3.89149 18.585 3.90551 18.5614 3.91995 18.5372C4.11505 18.2096 4.31544 17.8861 4.52404 17.5666C4.56865 17.4981 4.61274 17.4294 4.65692 17.3607C4.84497 17.0717 5.04218 16.7886 5.24088 16.5067C5.29795 16.4256 5.3544 16.3443 5.41064 16.2627C5.54818 16.0635 5.68462 15.866 5.84113 15.6805C5.96552 15.5313 6.08067 15.3745 6.197 15.2192C6.31695 15.0602 6.44169 14.9072 6.57285 14.7571C6.64677 14.6724 6.71898 14.5869 6.78938 14.4995C6.99983 14.2397 7.22335 13.991 7.45364 13.7481C7.50816 13.6897 7.56122 13.6308 7.61389 13.5708C7.7095 13.4636 7.80965 13.362 7.91252 13.2614C7.93047 13.2438 7.94842 13.2262 7.9669 13.208C8.00457 13.1711 8.04223 13.1342 8.07994 13.0973C8.1371 13.0414 8.19412 12.9854 8.25114 12.9294C8.28802 12.8932 8.32489 12.8571 8.3618 12.821C8.37852 12.8045 8.39529 12.7881 8.41254 12.7711C8.53028 12.6563 8.65295 12.5485 8.77888 12.4424C8.80928 12.4164 8.83973 12.3904 8.87014 12.3644C9.0886 12.1788 9.31128 12.0001 9.54131 11.8284C9.55882 11.8152 9.57634 11.802 9.59438 11.7883C10.5827 11.0455 11.8194 10.4214 13.0977 10.5545C13.745 10.6437 14.3246 10.9581 14.8511 11.3212C14.8529 11.2713 14.8529 11.2713 14.8548 11.2204C14.8597 11.0888 14.8648 10.9573 14.8699 10.8258C14.872 10.7704 14.8742 10.715 14.8762 10.6595C14.8844 10.4351 14.8946 10.2109 14.9056 9.98657C14.9066 9.96509 14.9076 9.94357 14.9087 9.92144C14.962 8.82077 15.0651 7.72506 15.1681 6.62801C15.2039 6.24641 15.2395 5.86477 15.2747 5.48313C15.2777 5.45013 15.2777 5.45013 15.2808 5.41649C15.3417 4.75668 15.3968 4.09658 15.4451 3.43574C15.4465 3.41719 15.4478 3.39865 15.4492 3.37954C15.497 2.72479 15.5403 2.06973 15.581 1.41453C15.5967 1.17207 15.6172 0.931227 15.6525 0.690695C15.657 0.658979 15.657 0.658979 15.6616 0.626621C15.7014 0.37802 15.803 0.185116 16.0101 0.0315963C16.0864 -0.00100363 16.13 -0.00397494 16.2126 0.00323452Z" fill="white"/>
<path d="M67.7587 13.7237C68.6594 14.5822 68.9273 15.9599 68.9568 17.1404C68.9577 17.159 68.9581 17.1775 68.9586 17.1967C68.9832 18.1006 68.9832 18.1006 68.7936 18.3416C68.6123 18.5103 68.3377 18.5581 68.0957 18.5635C68.0469 18.5614 67.998 18.5587 67.9496 18.5551C67.9254 18.5545 67.9017 18.5539 67.877 18.5533C67.7675 18.5432 67.7015 18.5262 67.6236 18.4479C67.3424 18.0445 67.254 17.5845 67.2791 17.1054C67.2822 17.032 67.2848 16.9586 67.2879 16.8852C67.2888 16.8572 67.2888 16.8572 67.2901 16.8287C67.368 15.7489 67.368 15.7489 66.9966 14.7647C66.9781 14.7414 66.9596 14.7182 66.9407 14.6942C66.8791 14.6183 66.8162 14.5444 66.7515 14.4711C66.7348 14.4523 66.7185 14.4336 66.7014 14.4142C66.4682 14.1674 66.1826 13.9848 65.8425 13.9405C65.5499 13.8956 65.5499 13.8956 65.4641 13.7862C65.3928 13.668 65.3748 13.5679 65.399 13.4327C65.4293 13.3383 65.4808 13.2843 65.5534 13.2165C65.5666 13.2041 65.5794 13.1917 65.593 13.1789C66.1412 12.7271 67.327 13.3344 67.7587 13.7237Z" fill="white"/>
<path d="M46.779 12.9518C47.1874 13.1592 47.5614 13.4001 47.9081 13.697C47.9222 13.7087 47.9358 13.7204 47.9499 13.7325C48.3648 14.0876 48.7652 14.5122 48.9628 15.0239C48.998 15.1135 49.038 15.2003 49.0789 15.2876C49.2791 15.7169 49.3887 16.1214 49.3874 16.5953C49.3874 16.65 49.3878 16.7047 49.3887 16.7594C49.3909 17.1977 49.3909 17.1977 49.2571 17.3444C49.1462 17.4405 49.0081 17.4958 48.8748 17.5558C48.8572 17.5639 48.8396 17.5721 48.8211 17.5804C48.7714 17.6031 48.7208 17.6254 48.6706 17.6476C48.6477 17.6599 48.6244 17.6722 48.6006 17.6848C48.5012 17.7091 48.4506 17.6715 48.3626 17.6242C48.319 17.6012 48.319 17.6012 48.2746 17.5777C48.2526 17.5655 48.2306 17.5534 48.2077 17.5408C48.2077 17.5232 48.2077 17.5056 48.2077 17.4874C48.1897 17.4874 48.1716 17.4874 48.1532 17.4874C48.1532 17.4698 48.1532 17.4522 48.1532 17.434C48.1175 17.4252 48.0814 17.4164 48.0445 17.4074C48.0445 17.3897 48.0445 17.3721 48.0445 17.354C48.0203 17.344 48.0203 17.3441 47.9956 17.334C47.8843 17.2721 47.8258 17.1716 47.7721 17.0603C47.7413 16.9088 47.7774 16.7571 47.8012 16.6066C47.9068 15.8651 47.6542 15.1426 47.2001 14.5511C47.0562 14.3643 46.9005 14.1884 46.7372 14.0173C46.7166 13.9956 46.6959 13.9738 46.6748 13.9515C46.4508 13.7241 46.1991 13.5318 45.9325 13.355C45.8132 13.2746 45.7112 13.1938 45.654 13.0593C45.6456 12.9792 45.6751 12.9449 45.7213 12.8795C45.7354 12.8588 45.7494 12.8381 45.7644 12.8167C46.006 12.5408 46.515 12.8222 46.779 12.9518Z" fill="white"/>
<path d="M33.2942 6.71579C33.3133 6.73369 33.3325 6.75159 33.3522 6.77C33.373 6.78941 33.3938 6.80882 33.4152 6.82884C33.5034 6.91717 33.5876 7.00771 33.667 7.10368C33.6822 7.11895 33.6975 7.13422 33.7132 7.14996C33.7746 7.25461 33.7639 7.36468 33.7348 7.47825C33.7164 7.53281 33.6958 7.58591 33.6738 7.63922C33.6635 7.66597 33.6635 7.66597 33.653 7.69327C33.5181 8.03329 33.5181 8.03329 33.3879 8.10303C33.3737 8.11123 33.3595 8.11947 33.3449 8.12792C33.1749 8.17623 33.0229 8.14185 32.8637 8.07633C32.846 8.06922 32.8284 8.06214 32.8102 8.05481C32.6666 7.99395 32.542 7.91786 32.4416 7.79769C32.3584 7.553 32.4137 7.23653 32.5046 6.99857C32.5911 6.84475 32.7352 6.76634 32.9032 6.7132C33.1741 6.64086 33.1741 6.64086 33.2942 6.71579Z" fill="white"/>
<path d="M48.3525 19.426C48.3802 19.4268 48.4084 19.4275 48.437 19.4282C48.506 19.4301 48.5747 19.4327 48.6433 19.4361C48.6433 19.4536 48.6433 19.4713 48.6433 19.4894C48.6614 19.4894 48.6794 19.4894 48.6979 19.4894C48.7604 19.5578 48.7797 19.5823 48.7797 19.6763C48.7978 19.6763 48.8154 19.6763 48.8343 19.6763C48.9113 19.8434 48.9456 19.9997 48.9157 20.1835C48.8528 20.286 48.7837 20.3252 48.6706 20.3703C48.635 20.3703 48.5989 20.3703 48.5619 20.3703C48.5619 20.388 48.5619 20.4056 48.5619 20.4237C48.3151 20.4726 48.3151 20.4726 48.1998 20.424C48.0392 20.3107 47.9349 20.1557 47.8267 19.9966C47.8196 19.9247 47.824 19.8555 47.8267 19.7831C47.8447 19.7831 47.8623 19.7831 47.8812 19.7831C47.8826 19.7555 47.8843 19.728 47.8861 19.6996C47.9455 19.4223 48.0968 19.4135 48.3525 19.426Z" fill="white"/>
<path d="M68.5824 19.8615C68.7276 19.9165 68.8419 20.0023 68.93 20.1284C68.977 20.2703 68.9735 20.3751 68.9075 20.5088C68.8882 20.5429 68.8684 20.5768 68.8481 20.6106C68.8376 20.632 68.8266 20.6535 68.8156 20.6757C68.7293 20.7485 68.6316 20.7476 68.5212 20.744C68.4284 20.7329 68.3549 20.7143 68.2761 20.664C68.1771 20.5331 68.1507 20.3979 68.1674 20.2369C68.2172 20.1572 68.2172 20.1572 68.2831 20.0834C68.3047 20.0587 68.3258 20.0341 68.3483 20.0087C68.49 19.864 68.49 19.864 68.5824 19.8615Z" fill="white"/>
</g>
<defs>
<filter id="filter0_i_11_2" x="0" y="0" width="77" height="39" filterUnits="userSpaceOnUse" color-interpolation-filters="sRGB">
<feFlood flood-opacity="0" result="BackgroundImageFix"/>
<feBlend mode="normal" in="SourceGraphic" in2="BackgroundImageFix" result="shape"/>
<feColorMatrix in="SourceAlpha" type="matrix" values="0 0 0 0 0 0 0 0 0 0 0 0 0 0 0 0 0 0 127 0" result="hardAlpha"/>
<feOffset dy="4"/>
<feGaussianBlur stdDeviation="5"/>
<feComposite in2="hardAlpha" operator="arithmetic" k2="-1" k3="1"/>
<feColorMatrix type="matrix" values="0 0 0 0 1 0 0 0 0 1 0 0 0 0 1 0 0 0 1 0"/>
<feBlend mode="normal" in2="shape" result="effect1_innerShadow_11_2"/>
</filter>
</defs>
</svg>
